<mxfile host="app.diagrams.net" modified="2024-05-31T00:27:46.515Z" agent="Mozilla/5.0 (Windows NT 10.0; Win64; x64) AppleWebKit/537.36 (KHTML, like Gecko) Chrome/124.0.0.0 Whale/3.26.244.21 Safari/537.36" version="24.3.1" etag="Pr_6J_FQjBhrXc7qHNvm" type="github">
  <diagram name="페이지-1" id="MhLp9Ih1VYL3NGixv01h">
    <mxGraphModel>
      <root>
        <mxCell id="0" />
        <mxCell id="1" parent="0" />
      </root>
    </mxGraphModel>
  </diagram>
</mxfile>
